<?xml version="1.0" encoding="UTF-8" standalone="no"?>
<!--
SPDX-FileCopyrightText: © 2020-2024 by Patrick Zedler and Dominic Zedler
SPDX-FileCopyrightText: © 2024-2025 by Patrick Zedler
SPDX-FileCopyrightText: © 2025 Stefan Siegel &lt;ssiegel@sdas.net&gt;
SPDX-License-Identifier: GPL-3.0-or-later
-->
<svg xmlns="http://www.w3.org/2000/svg" xmlns:svg="http://www.w3.org/2000/svg" viewBox="0 0 461 512" version="1.1" id="svg1">
  <path d="M 332.89731,102.39731 V 256 c 0,28.15624 23.0357,51.20538 51.20538,51.20538 h 25.58925 v 179.19193 c 0,14.08484 11.53129,25.60269 25.60269,25.60269 c 14.08483,0 25.60268,-11.51785 25.60268,-25.60269 V 28.935741 C 460.89731,12.297354 445.28035,0 429.15267,3.8437631 C 373.86161,17.417892 332.89731,64.255355 332.89731,102.39731 Z m -128,76.80807 H 153.70538 V 25.602688 C 153.70538,11.531289 142.18753,0 128.10269,0 C 114.01785,0 102.5,11.531289 102.5,25.602688 V 179.20538 H 51.308066 V 25.602688 C 51.308066,11.531289 39.790216,0 25.705378,0 C 11.62054,0 0.10269,11.531289 0.10269,25.602688 V 179.20538 c 0,56.56782 45.829483,102.39731 102.39731,102.39731 V 486.39731 C 102.5,500.48215 114.01785,512 128.10269,512 c 14.08484,0 25.60269,-11.51785 25.60269,-25.60269 V 281.60269 c 56.56783,0 102.39731,-45.82949 102.39731,-102.39731 V 25.602688 C 256.10269,11.531289 244.58484,0 230.5,0 c -14.08484,0 -25.60269,11.531289 -25.60269,25.602688 z" id="path1"/>
</svg>
