<?xml version="1.0" encoding="UTF-8" standalone="no"?>
<!--
SPDX-FileCopyrightText: © 2020-2024 by Patrick Zedler and Dominic Zedler
SPDX-FileCopyrightText: © 2024-2025 by Patrick Zedler
SPDX-FileCopyrightText: © 2025 Stefan Siegel &lt;ssiegel@sdas.net&gt;
SPDX-License-Identifier: GPL-3.0-or-later
-->
<svg xmlns="http://www.w3.org/2000/svg" xmlns:svg="http://www.w3.org/2000/svg" viewBox="0 0 439 512" version="1.1" id="svg1">
  <path d="m 292.6392,0 v 48.768 h 48.768 v 48.7552 h 48.7552 v 48.768 h 48.768 V 48.768 c 0,-12.928 -5.1456,-25.344 -14.2848,-34.4832 C 415.5064,5.1456 403.0904,0 390.1624,0 Z M 48.837599,48.768 c -12.928,0 -25.3312,5.1328 -34.4832,14.2848 C 5.2152001,72.192 0.0696,84.608 0.0696,97.5232 c 0,24.384 12.1984,73.1392 12.1984,182.8608 c 0,109.7088 -12.1984,158.4768 -12.1984,182.8608 C 0.0696,487.616 24.453599,512 48.837599,512 c 24.3712,0 73.139201,-12.1856 146.278401,-12.1856 c 73.152,0 121.9072,12.1856 146.2912,12.1856 c 24.384,0 48.7552,-21.9392 48.7552,-48.7552 V 195.0464 h -48.7552 v -48.7552 h -48.768 V 97.5232 H 243.884 V 48.768 Z m 48.7552,73.1392 H 195.116 c 14.6304,0 24.384,9.7536 24.384,24.384 v 48.7552 c 0,14.6304 -9.7536,24.384 -24.384,24.384 H 97.592799 c -6.4512,0 -12.672,-2.56 -17.2288,-7.1424 c -4.5952,-4.5568 -7.1424,-10.7776 -7.1424,-17.2416 v -48.7552 c 0,-14.6304 9.7536,-24.384 24.3712,-24.384 z m 0,195.0464 H 243.884 c 14.6304,0 24.384,9.7536 24.384,24.384 c 0,14.6304 -9.7536,24.3712 -24.384,24.3712 H 97.592799 c -31.6928,0 -31.6928,-48.7552 0,-48.7552 z m 0,73.1392 H 292.6392 c 14.6304,0 24.384,9.7536 24.384,24.384 c 0,14.6304 -9.7536,24.384 -24.384,24.384 H 97.592799 c -31.6928,0 -31.6928,-48.768 0,-48.768 z" id="path1"/>
</svg>
